HIERARCHY
ROOT Hips
{
	OFFSET -22.846729 91.940529 -261.900696
	CHANNELS 6 Xposition Yposition Zposition Zrotation Yrotation Xrotation 
	JOINT LeftUpLeg
	{
		OFFSET 0.103462 1.857826 10.548503
		CHANNELS 3 Zrotation Yrotation Xrotation
		JOINT LeftLeg
		{
			OFFSET 43.500000 -0.000031 0.000000
			CHANNELS 3 Zrotation Yrotation Xrotation
			JOINT LeftFoot
			{
				OFFSET 42.372200 0.000008 -0.000003
				CHANNELS 3 Zrotation Yrotation Xrotation
				JOINT LeftToe
				{
					OFFSET 17.300003 0.000000 0.000002
					CHANNELS 3 Zrotation Yrotation Xrotation
					End Site
					{
						OFFSET 0.000000 0.000000 0.000000
					}
				}
			}
		}
	}
	JOINT RightUpLeg
	{
		OFFSET 0.103456 1.857828 -10.548503
		CHANNELS 3 Zrotation Yrotation Xrotation
		JOINT RightLeg
		{
			OFFSET 43.500042 -0.000019 0.000010
			CHANNELS 3 Zrotation Yrotation Xrotation
			JOINT RightFoot
			{
				OFFSET 42.372253 0.000000 0.000013
				CHANNELS 3 Zrotation Yrotation Xrotation
				JOINT RightToe
				{
					OFFSET 17.299976 -0.000010 0.000008
					CHANNELS 3 Zrotation Yrotation Xrotation
					End Site
					{
						OFFSET 0.000000 0.000000 0.000000
					}
				}
			}
		}
	}
	JOINT Spine
	{
		OFFSET 6.901965 -2.603735 -0.000001
		CHANNELS 3 Zrotation Yrotation Xrotation
		JOINT Spine1
		{
			OFFSET 12.588106 -0.000003 0.000000
			CHANNELS 3 Zrotation Yrotation Xrotation
			JOINT Spine2
			{
				OFFSET 12.343198 0.000019 -0.000002
				CHANNELS 3 Zrotation Yrotation Xrotation
				JOINT Neck
				{
					OFFSET 25.832905 -0.000013 0.000001
					CHANNELS 3 Zrotation Yrotation Xrotation
					JOINT Head
					{
						OFFSET 11.766598 0.000013 -0.000001
						CHANNELS 3 Zrotation Yrotation Xrotation
						End Site
						{
							OFFSET 0.000000 0.000000 0.000000
						}
					}
				}
				JOINT LeftShoulder
				{
					OFFSET 19.745911 -1.480387 6.000106
					CHANNELS 3 Zrotation Yrotation Xrotation
					JOINT LeftArm
					{
						OFFSET 11.284126 -0.000005 -0.000031
						CHANNELS 3 Zrotation Yrotation Xrotation
						JOINT LeftForeArm
						{
							OFFSET 33.000053 -0.000022 0.000026
							CHANNELS 3 Zrotation Yrotation Xrotation
							JOINT LeftHand
							{
								OFFSET 25.200005 0.000041 0.000016
								CHANNELS 3 Zrotation Yrotation Xrotation
								End Site
								{
									OFFSET 0.000000 0.000000 0.000000
								}
							}
						}
					}
				}
				JOINT RightShoulder
				{
					OFFSET 19.746105 -1.480383 -6.000075
					CHANNELS 3 Zrotation Yrotation Xrotation
					JOINT RightArm
					{
						OFFSET 11.284141 -0.000009 -0.000009
						CHANNELS 3 Zrotation Yrotation Xrotation
						JOINT RightForeArm
						{
							OFFSET 33.000092 0.000011 0.000021
							CHANNELS 3 Zrotation Yrotation Xrotation
							JOINT RightHand
							{
								OFFSET 25.199780 0.000133 0.000423
								CHANNELS 3 Zrotation Yrotation Xrotation
								End Site
								{
									OFFSET 0.000000 0.000000 0.000000
								}
							}
						}
					}
				}
			}
		}
	}
}
MOTION
Frames: 5
Frame Time: 0.033333
141.698303 12.68012 -445.219696 168.9822 -6.029513 0.907718 -173.402684 -21.1026 161.929961 -30.152891 1.499459 -7.37501 97.995319 4.419409 -5.34576 21.454563 0.00311 1.6e-05 -174.464574 19.670503 -158.111694 -33.135655 0.543768 2.629385 96.136115 -1.30098 4.129319 21.454557 -0.003096 -3e-06 5.741172 0.908257 0.018797 1.470063 1.816266 0.048589 1.15179 1.816388 0.037615 3.307101 -7.110678 -1.110121 -56.495012 4.543201 -6.284043 -13.614822 -79.111431 -168.347989 -27.138621 -19.588171 -64.978363 -98.591841 -0.964678 2.799045 2.836697 -12.240001 22.618632 -31.538091 69.885505 151.273937 -33.599927 22.708058 55.386561 -84.09486 8.93495 -2.669729 -4.405646 25.430432 -22.275699 
141.379105 12.80354 -445.138702 169.671803 -5.980203 0.831225 -174.381136 -21.588894 163.168875 -30.46122 1.55299 -8.215697 100.565001 5.10548 -4.549736 21.45457 0.003115 1.7e-05 -175.173903 19.827901 -158.944157 -33.177121 0.644046 2.972006 98.600263 -1.664953 3.402016 21.454555 -0.003095 -1e-06 5.647049 0.848458 -0.027221 1.281053 1.6972 -0.045579 0.962803 1.696756 -0.055831 2.252515 -6.825052 -1.298451 -55.344616 4.571263 -6.433136 -11.637304 -77.062408 -170.352295 -28.473329 -21.936694 -63.554856 -90.762668 -5.035212 2.732955 4.95058 -11.183549 22.937438 -29.654793 68.005407 153.215814 -35.024626 24.987803 49.883532 -75.517051 15.706722 -2.773648 -2.457849 24.308233 -18.355333 
140.951904 12.96789 -445.079803 170.682999 -5.953712 0.747043 -175.937176 -22.272096 164.582656 -30.723437 1.470671 -9.76668 102.389296 6.203404 -3.760959 21.454562 0.003108 1.5e-05 -176.39234 20.075606 -160.841461 -33.100367 1.147164 4.216311 100.4558 -2.569517 2.983651 21.45457 -0.003099 0.0 5.471686 0.803017 -0.082956 0.929488 1.606673 -0.159997 0.611256 1.60554 -0.1697 0.410667 -6.74568 -1.346076 -53.914867 4.636533 -6.522837 -11.317987 -74.822899 -170.7407 -30.469409 -23.916522 -58.914329 -82.679495 -11.812049 2.849269 7.492266 -9.712358 19.748773 -29.202156 66.42751 153.750003 -37.588157 26.783928 46.740269 -67.432743 19.860566 -2.726964 3.988881 19.902992 -8.686233 
140.441498 13.1637 -444.97821 171.973699 -5.98995 0.684656 -177.758118 -23.275698 165.502177 -30.209606 1.121049 -10.808563 103.815897 6.939146 -2.713477 21.454558 0.003107 1.9e-05 -177.826161 20.428404 -163.230156 -32.472359 1.93895 6.19233 102.012304 -3.978438 1.462026 21.454551 -0.003091 -2e-06 5.200265 0.774613 -0.144313 0.385773 1.549652 -0.286608 0.067554 1.547756 -0.295963 -1.113649 -6.380194 -1.262313 -52.70955 4.590611 -6.316684 -10.551694 -73.398797 -171.535092 -32.446308 -25.803406 -54.950337 -75.115122 -16.631832 2.858907 8.785427 -8.401415 17.713211 -29.477051 65.610606 153.541997 -40.904032 27.794726 44.813021 -61.134482 22.127235 -2.633567 7.623884 18.668621 -0.713412 
139.859695 13.35075 -444.861206 173.317512 -6.020173 0.590757 -179.447784 -24.285796 165.81041 -28.66808 1.03156 -10.947776 104.603712 7.042385 -2.389079 21.45455 0.003105 2.2e-05 -179.147215 20.905701 -165.755427 -31.043725 2.6623 8.227878 102.985708 -5.350386 0.607562 21.454553 -0.003096 3e-06 4.883387 0.760128 -0.212159 -0.248928 1.51969 -0.426561 -0.567137 1.516949 -0.435732 -1.658641 -6.008092 -1.210316 -52.200465 4.457344 -6.068286 -11.267809 -72.581907 -170.874203 -34.846252 -26.125994 -53.83676 -72.347297 -18.995316 2.907828 9.27412 -8.417106 18.217636 -31.113772 65.803306 151.967789 -45.455899 26.885076 47.696109 -60.726379 23.283276 -2.699203 7.520624 16.288411 -5.701375 
